<?xml version="1.0" encoding="UTF-8"?><svg id="Layer_1" xmlns="http://www.w3.org/2000/svg" xmlns:xlink="http://www.w3.org/1999/xlink" viewBox="0 0 347 80"><defs><clipPath id="clippath"><rect x="-2671" y="1222.5" width="1080" height="1350" style="fill:none; stroke-width:0px;"/></clipPath><clipPath id="clippath-1"><rect x="-2671.3574" y="1222.2324" width="1080" height="1349.7261" style="fill:none; stroke-width:0px;"/></clipPath><clipPath id="clippath-2"><rect x="-2671.3574" y="-236.7676" width="1080" height="1349.7261" style="fill:none; stroke-width:0px;"/></clipPath></defs><rect x="1.8128" y="23.0609" width="342.6288" height="17.9357" transform="translate(346.2545 64.0574) rotate(-180)" style="fill:#055edd; stroke-width:0px;"/><path d="m2.9707,4.3745h2.5752v14.2129h-2.5752V4.3745Z" style="fill:#fff; stroke-width:0px;"/><path d="m20.8369,4.3745v14.2129h-1.917l-7.665-9.9609v9.9609h-2.3955V4.3745h1.916l7.6455,9.9409V4.3745h2.416Z" style="fill:#fff; stroke-width:0px;"/><path d="m27.5039,6.4902h-4.6318v-2.1157h11.8779v2.1157h-4.6514v12.0972h-2.5947V6.4902Z" style="fill:#fff; stroke-width:0px;"/><path d="m36.7656,4.3745h9.502v2.0361h-6.9863v3.9321h6.5674v2.0366h-6.5674v4.1719h6.9863v2.0361h-9.502V4.3745Z" style="fill:#fff; stroke-width:0px;"/><path d="m60.5811,18.5874h-2.7148l-1.8174-4.731c-.1592-.4395-.4053-.7451-.7383-.9185-.333-.1729-.7656-.2593-1.2979-.2593h-2.5752v5.9087h-2.5547V4.3745h6.0889c1.6094,0,2.834.3525,3.6729,1.0576.8379.7056,1.2578,1.7168,1.2578,3.0347,0,.9448-.25,1.7466-.749,2.4053s-1.208,1.1279-2.126,1.4072c.8389.1733,1.4443.7588,1.8164,1.7568l1.7373,4.5513Zm-5.9688-7.9053c.9707,0,1.6895-.1792,2.1553-.5386s.6992-.9048.6992-1.6372c0-.7183-.2295-1.2539-.6885-1.6069-.46-.3525-1.1816-.5288-2.166-.5288h-3.2139v4.3115h3.2139Z" style="fill:#fff; stroke-width:0px;"/><path d="m75.1133,4.3745v14.2129h-1.917l-7.665-9.9609v9.9609h-2.3955V4.3745h1.916l7.6455,9.9409V4.3745h2.416Z" style="fill:#fff; stroke-width:0px;"/><path d="m87.8887,15.2539h-6.9473l-1.4375,3.3335h-2.5947l6.4277-14.2129h2.0957l6.4482,14.2129h-2.5752l-1.417-3.3335Zm-.8584-1.9966l-2.6152-6.0884-2.6152,6.0884h5.2305Z" style="fill:#fff; stroke-width:0px;"/><path d="m95.2354,6.4902h-4.6318v-2.1157h11.8779v2.1157h-4.6514v12.0972h-2.5947V6.4902Z" style="fill:#fff; stroke-width:0px;"/><path d="m104.4971,4.3745h2.5752v14.2129h-2.5752V4.3745Z" style="fill:#fff; stroke-width:0px;"/><path d="m113.1104,17.8789c-1.0176-.5923-1.8037-1.4375-2.3555-2.5352-.5527-1.0981-.8281-2.3921-.8281-3.8828,0-1.4771.2725-2.7646.8184-3.8628.5459-1.0977,1.3271-1.9395,2.3457-2.5254,1.0176-.5854,2.2188-.8779,3.6025-.8779,1.3848,0,2.5859.2925,3.6035.8779,1.0186.5859,1.7969,1.4277,2.3359,2.5254.5391,1.0981.8086,2.3857.8086,3.8628,0,1.4907-.2734,2.7847-.8193,3.8828-.5449,1.0977-1.3242,1.9429-2.335,2.5352-1.0117.5923-2.209.8882-3.5938.8882-1.3701,0-2.5645-.2959-3.583-.8882Zm6.6572-2.5254c.7324-.9048,1.0986-2.2021,1.0986-3.8926,0-1.6768-.3662-2.9644-1.0986-3.8628-.7314-.8984-1.7559-1.3472-3.0742-1.3472-1.3174,0-2.3418.4458-3.0742,1.3374-.7314.8916-1.0977,2.1826-1.0977,3.8726s.3662,2.9878,1.0977,3.8926c.7324.9053,1.7568,1.3574,3.0742,1.3574,1.3184,0,2.3428-.4521,3.0742-1.3574Z" style="fill:#fff; stroke-width:0px;"/><path d="m138.293,4.3745v14.2129h-1.917l-7.665-9.9609v9.9609h-2.3955V4.3745h1.916l7.6455,9.9409V4.3745h2.416Z" style="fill:#fff; stroke-width:0px;"/><path d="m151.0684,15.2539h-6.9473l-1.4375,3.3335h-2.5947l6.4277-14.2129h2.0957l6.4482,14.2129h-2.5752l-1.417-3.3335Zm-.8584-1.9966l-2.6152-6.0884-2.6152,6.0884h5.2305Z" style="fill:#fff; stroke-width:0px;"/><path d="m156.8369,4.3745h2.5752v12.0967h6.6475v2.1162h-9.2227V4.3745Z" style="fill:#fff; stroke-width:0px;"/><path d="m176.75,17.8687c-1.0449-.5986-1.8467-1.4473-2.4062-2.5449-.5586-1.0981-.8379-2.3857-.8379-3.8628,0-1.4639.2793-2.7446.8379-3.8428.5596-1.0981,1.3613-1.9429,2.4062-2.5352,1.0439-.5923,2.2656-.8882,3.6631-.8882.958,0,1.8594.1494,2.7041.4492.8457.2993,1.5479.7153,2.1064,1.2476l-.8389,1.8765c-.6387-.519-1.2744-.895-1.9062-1.1279s-1.3076-.3496-2.0264-.3496c-1.3701,0-2.4316.4463-3.1836,1.3374-.752.8921-1.1279,2.1694-1.1279,3.833,0,1.6768.3721,2.9644,1.1182,3.8628.7451.8979,1.8096,1.3472,3.1934,1.3472.7188,0,1.3945-.1162,2.0264-.3491s1.2676-.6089,1.9062-1.1279l.8389,1.8765c-.5586.5322-1.2607.9482-2.1064,1.2476-.8447.2993-1.7461.4492-2.7041.4492-1.3975,0-2.6191-.2993-3.6631-.8984Z" style="fill:#fff; stroke-width:0px;"/><path d="m190.3232,17.8789c-1.0176-.5923-1.8037-1.4375-2.3555-2.5352-.5527-1.0981-.8281-2.3921-.8281-3.8828,0-1.4771.2725-2.7646.8184-3.8628.5459-1.0977,1.3271-1.9395,2.3457-2.5254,1.0176-.5854,2.2188-.8779,3.6025-.8779,1.3848,0,2.5859.2925,3.6035.8779,1.0186.5859,1.7969,1.4277,2.3359,2.5254.5391,1.0981.8086,2.3857.8086,3.8628,0,1.4907-.2734,2.7847-.8193,3.8828-.5449,1.0977-1.3242,1.9429-2.335,2.5352-1.0117.5923-2.209.8882-3.5938.8882-1.3701,0-2.5645-.2959-3.583-.8882Zm6.6572-2.5254c.7324-.9048,1.0986-2.2021,1.0986-3.8926,0-1.6768-.3662-2.9644-1.0986-3.8628-.7314-.8984-1.7559-1.3472-3.0742-1.3472-1.3174,0-2.3418.4458-3.0742,1.3374-.7314.8916-1.0977,2.1826-1.0977,3.8726s.3662,2.9878,1.0977,3.8926c.7324.9053,1.7568,1.3574,3.0742,1.3574,1.3184,0,2.3428-.4521,3.0742-1.3574Z" style="fill:#fff; stroke-width:0px;"/><path d="m215.5059,4.3745v14.2129h-1.917l-7.665-9.9609v9.9609h-2.3955V4.3745h1.916l7.6455,9.9409V4.3745h2.416Z" style="fill:#fff; stroke-width:0px;"/><path d="m218.8398,4.3745h9.2822v2.0557h-6.7275v3.8931h6.3281v2.0757h-6.3281v6.1885h-2.5547V4.3745Z" style="fill:#fff; stroke-width:0px;"/><path d="m230.4971,4.3745h9.502v2.0361h-6.9863v3.9321h6.5674v2.0366h-6.5674v4.1719h6.9863v2.0361h-9.502V4.3745Z" style="fill:#fff; stroke-width:0px;"/><path d="m254.3125,18.5874h-2.7148l-1.8174-4.731c-.1592-.4395-.4053-.7451-.7383-.9185-.333-.1729-.7656-.2593-1.2979-.2593h-2.5752v5.9087h-2.5547V4.3745h6.0889c1.6094,0,2.834.3525,3.6729,1.0576.8379.7056,1.2578,1.7168,1.2578,3.0347,0,.9448-.25,1.7466-.749,2.4053s-1.208,1.1279-2.126,1.4072c.8389.1733,1.4443.7588,1.8164,1.7568l1.7373,4.5513Zm-5.9688-7.9053c.9707,0,1.6895-.1792,2.1553-.5386s.6992-.9048.6992-1.6372c0-.7183-.2295-1.2539-.6885-1.6069-.46-.3525-1.1816-.5288-2.166-.5288h-3.2139v4.3115h3.2139Z" style="fill:#fff; stroke-width:0px;"/><path d="m256.8672,4.3745h9.502v2.0361h-6.9863v3.9321h6.5674v2.0366h-6.5674v4.1719h6.9863v2.0361h-9.502V4.3745Z" style="fill:#fff; stroke-width:0px;"/><path d="m280.9609,4.3745v14.2129h-1.917l-7.665-9.9609v9.9609h-2.3955V4.3745h1.916l7.6455,9.9409V4.3745h2.416Z" style="fill:#fff; stroke-width:0px;"/><path d="m287.0801,17.8687c-1.0449-.5986-1.8467-1.4473-2.4062-2.5449-.5586-1.0981-.8379-2.3857-.8379-3.8628,0-1.4639.2793-2.7446.8379-3.8428.5596-1.0981,1.3613-1.9429,2.4062-2.5352,1.0439-.5923,2.2656-.8882,3.6631-.8882.958,0,1.8594.1494,2.7041.4492.8457.2993,1.5479.7153,2.1064,1.2476l-.8389,1.8765c-.6387-.519-1.2744-.895-1.9062-1.1279s-1.3076-.3496-2.0264-.3496c-1.3701,0-2.4316.4463-3.1836,1.3374-.752.8921-1.1279,2.1694-1.1279,3.833,0,1.6768.3721,2.9644,1.1182,3.8628.7451.8979,1.8096,1.3472,3.1934,1.3472.7188,0,1.3945-.1162,2.0264-.3491s1.2676-.6089,1.9062-1.1279l.8389,1.8765c-.5586.5322-1.2607.9482-2.1064,1.2476-.8447.2993-1.7461.4492-2.7041.4492-1.3975,0-2.6191-.2993-3.6631-.8984Z" style="fill:#fff; stroke-width:0px;"/><path d="m298.208,4.3745h9.502v2.0361h-6.9863v3.9321h6.5674v2.0366h-6.5674v4.1719h6.9863v2.0361h-9.502V4.3745Z" style="fill:#fff; stroke-width:0px;"/><path d="m318.7588,17.8789c-1.0176-.5923-1.8037-1.4375-2.3555-2.5352-.5527-1.0981-.8281-2.3921-.8281-3.8828,0-1.4771.2725-2.7646.8184-3.8628.5459-1.0977,1.3271-1.9395,2.3457-2.5254,1.0176-.5854,2.2188-.8779,3.6025-.8779,1.3848,0,2.5859.2925,3.6035.8779,1.0186.5859,1.7969,1.4277,2.3359,2.5254.5391,1.0981.8086,2.3857.8086,3.8628,0,1.4907-.2734,2.7847-.8193,3.8828-.5449,1.0977-1.3242,1.9429-2.335,2.5352-1.0117.5923-2.209.8882-3.5938.8882-1.3701,0-2.5645-.2959-3.583-.8882Zm6.6572-2.5254c.7324-.9048,1.0986-2.2021,1.0986-3.8926,0-1.6768-.3662-2.9644-1.0986-3.8628-.7314-.8984-1.7559-1.3472-3.0742-1.3472-1.3174,0-2.3418.4458-3.0742,1.3374-.7314.8916-1.0977,2.1826-1.0977,3.8726s.3662,2.9878,1.0977,3.8926c.7324.9053,1.7568,1.3574,3.0742,1.3574,1.3184,0,2.3428-.4521,3.0742-1.3574Z" style="fill:#fff; stroke-width:0px;"/><path d="m343.9414,4.3745v14.2129h-1.917l-7.665-9.9609v9.9609h-2.3955V4.3745h1.916l7.6455,9.9409V4.3745h2.416Z" style="fill:#fff; stroke-width:0px;"/><rect x="114.0178" y="65.7986" width="118.925" height="12.0603" style="fill:#006814; stroke-width:0px;"/><path d="m123.1777,68.1138v7.5073h-.833l-4.3027-5.6729v5.6729h-1.0225v-7.5073h.8223l4.3125,5.6831v-5.6831h1.0234Z" style="fill:#fff; stroke-width:0px;"/><path d="m125.8027,75.3574c-.3936-.2246-.6973-.5444-.9121-.9595-.2139-.4146-.3213-.8999-.3213-1.4551s.1074-1.042.3213-1.4604c.2148-.418.5186-.7397.9121-.9648.3936-.2246.8506-.3374,1.3711-.3374.5127,0,.9668.1128,1.3604.3374.3936.2251.6973.5469.9121.9648.2139.4185.3213.9053.3213,1.4604s-.1074,1.0405-.3213,1.4551c-.2148.415-.5186.7349-.9121.9595-.3936.2251-.8477.3374-1.3604.3374-.5205,0-.9775-.1123-1.3711-.3374Zm2.4883-.9912c.2607-.3232.3906-.7974.3906-1.4233,0-.6113-.1318-1.0825-.3955-1.4131-.2637-.3301-.6348-.4951-1.1123-.4951-.4854,0-.8613.165-1.1279.4951-.2676.3306-.4014.8018-.4014,1.4131,0,.626.1318,1.1001.3955,1.4233.2637.3237.6377.4854,1.123.4854.4922,0,.8682-.1616,1.1279-.4854Z" style="fill:#fff; stroke-width:0px;"/><path d="m135.8193,70.3174l-2.3096,5.3037h-.959l-2.2881-5.3037h1.1279l1.666,4.1016,1.6982-4.1016h1.0645Z" style="fill:#fff; stroke-width:0px;"/><path d="m141.1553,72.9849h-3.7959c.0352,1.2446.6006,1.8667,1.6973,1.8667.6113,0,1.1709-.2007,1.6768-.6011l.3271.7593c-.2393.2104-.543.3779-.9121.5005-.3691.123-.7402.1846-1.1123.1846-.8506,0-1.5186-.2441-2.0039-.7329-.4854-.4883-.7275-1.1577-.7275-2.0083,0-.5415.1074-1.0229.3213-1.4448.2148-.4219.5156-.7485.9023-.9805.3857-.2319.8252-.3481,1.3174-.3481.7168,0,1.2812.2319,1.6924.6963.4111.4639.6172,1.1069.6172,1.9292v.1792Zm-3.2686-1.6553c-.2529.2393-.415.5801-.4854,1.0229h2.8154c-.042-.4497-.1797-.7925-.4111-1.0283-.2324-.2354-.5449-.353-.9385-.353-.4014,0-.7275.1196-.9805.3584Z" style="fill:#fff; stroke-width:0px;"/><path d="m150.2646,72.3101v3.311h-1.0645v-3.2583c0-.4565-.0791-.7905-.2373-1.0015s-.4131-.3164-.7646-.3164c-.4082,0-.7295.1406-.9648.4219s-.3535.6641-.3535,1.1494v3.0049h-1.0645v-3.2583c0-.4565-.0791-.7905-.2373-1.0015s-.4131-.3164-.7646-.3164c-.4072,0-.7314.1406-.9697.4219-.2393.2812-.3584.6641-.3584,1.1494v3.0049h-1.0547v-3.8169c0-.5552-.0283-1.0547-.084-1.4971h.9912l.0947.8853c.1543-.3232.376-.5728.6641-.7485.2881-.1753.626-.2637,1.0117-.2637.8232,0,1.3604.3413,1.6133,1.0229.1621-.3164.3994-.5659.7119-.7485s.666-.2744,1.0596-.2744c1.1816,0,1.7715.7104,1.7715,2.1299Z" style="fill:#fff; stroke-width:0px;"/><path d="m155.8955,70.5176c.3584.2251.6357.5449.833.9595.1963.415.2949.8965.2949,1.4448s-.0996,1.0317-.2998,1.4497c-.2002.4185-.4805.7432-.8389.9756-.3584.2319-.7656.3477-1.2227.3477-.4082,0-.7646-.0859-1.0703-.2583-.3057-.1719-.5361-.4199-.6904-.7432v.9277h-1.0547v-7.7603h1.0547v3.3213c.1543-.3164.3848-.5625.6904-.7383.3057-.1753.6621-.2637,1.0703-.2637.4639,0,.875.1128,1.2334.3374Zm-.3584,3.8223c.2666-.3408.4004-.8135.4004-1.418,0-.5977-.1338-1.0615-.4004-1.3921-.2676-.3301-.6396-.4951-1.1182-.4951-.4844,0-.8584.165-1.1221.4951-.2637.3306-.3955.8018-.3955,1.4131,0,.6118.1318,1.0825.3955,1.4131s.6377.4956,1.1221.4956c.4785,0,.8506-.1704,1.1182-.5117Z" style="fill:#fff; stroke-width:0px;"/><path d="m162.8545,72.9849h-3.7959c.0352,1.2446.6006,1.8667,1.6973,1.8667.6113,0,1.1709-.2007,1.6768-.6011l.3271.7593c-.2393.2104-.543.3779-.9121.5005-.3691.123-.7402.1846-1.1123.1846-.8506,0-1.5186-.2441-2.0039-.7329-.4854-.4883-.7275-1.1577-.7275-2.0083,0-.5415.1074-1.0229.3213-1.4448.2148-.4219.5156-.7485.9023-.9805.3857-.2319.8252-.3481,1.3174-.3481.7168,0,1.2812.2319,1.6924.6963.4111.4639.6172,1.1069.6172,1.9292v.1792Zm-3.2686-1.6553c-.2529.2393-.415.5801-.4854,1.0229h2.8154c-.042-.4497-.1797-.7925-.4111-1.0283-.2324-.2354-.5449-.353-.9385-.353-.4014,0-.7275.1196-.9805.3584Z" style="fill:#fff; stroke-width:0px;"/><path d="m167.2822,70.2544l-.0205.9697c-.1904-.0703-.3975-.1055-.6221-.1055-.4854,0-.8486.146-1.0918.4375-.2422.292-.3633.6592-.3633,1.1021v2.9629h-1.0547v-3.8169c0-.5552-.0283-1.0547-.084-1.4971h.9912l.0947.9595c.1406-.3516.3584-.6206.6533-.8066.2949-.1865.626-.2798.9912-.2798.1621,0,.3301.0249.5059.0742Z" style="fill:#fff; stroke-width:0px;"/><path d="m175.8975,74.7246v.8965h-4.3867v-.8965h1.6455v-5.314l-1.5293.9487v-1.0015l1.9932-1.2441h.6328v6.6108h1.6445Z" style="fill:#fff; stroke-width:0px;"/><path d="m182.1133,72.4473c.2705.3232.4053.7134.4053,1.1704,0,.647-.2471,1.1548-.7432,1.5234-.4951.3691-1.1611.5537-1.998.5537s-1.502-.1846-1.998-.5537c-.4951-.3687-.7432-.8765-.7432-1.5234,0-.4639.1367-.8574.4111-1.1807s.6572-.5483,1.1494-.6748c-.4365-.1406-.7754-.3623-1.0176-.6646s-.3643-.6572-.3643-1.0649c0-.4009.1094-.752.3271-1.0542s.5205-.5361.9072-.7012c.3857-.165.8291-.248,1.3281-.248s.9424.083,1.3291.248c.3857.165.6885.3989.9062.7012s.3271.6533.3271,1.0542c0,.4077-.1201.7646-.3584,1.0703-.2393.3057-.5732.5254-1.002.6592.4854.1333.8633.3618,1.1338.6851Zm-1.0811,2.0454c.2949-.2178.4424-.5337.4424-.9487,0-.3867-.1523-.6943-.458-.9229-.3057-.228-.7188-.374-1.2393-.4375-.5205.0635-.9326.2095-1.2393.4375-.3057.2285-.458.5361-.458.9229,0,.415.1475.731.4424.9487.2959.2183.7139.3271,1.2549.3271s.96-.1089,1.2549-.3271Zm-2.3623-3.4741c.2744.2285.6436.3745,1.1074.4375.4639-.063.833-.209,1.1074-.4375s.4111-.5254.4111-.8911c0-.3862-.1357-.687-.4062-.9014s-.6416-.3218-1.1123-.3218-.8418.1074-1.1123.3218-.4062.5151-.4062.9014c0,.3657.1377.6626.4111.8911Z" style="fill:#fff; stroke-width:0px;"/><path d="m183.7422,72.3525h3.0684v.8647h-3.0684v-.8647Z" style="fill:#fff; stroke-width:0px;"/><path d="m193.3574,74.7246v.8965h-4.9238v-.812l2.583-2.8364c.3311-.3652.5713-.6973.7227-.9961s.2266-.5957.2266-.8911c0-.3794-.1084-.6694-.3271-.8696-.2178-.2007-.5342-.3008-.9482-.3008-.6963,0-1.3916.2744-2.0879.8223l-.3906-.8013c.2959-.2739.6719-.4937,1.1289-.6587s.917-.248,1.3809-.248c.7168,0,1.2852.1792,1.7031.5376.418.3589.627.8438.627,1.4551,0,.436-.0947.8491-.2842,1.2393-.1904.3901-.5059.8242-.9492,1.3022l-2.0029,2.1611h3.542Z" style="fill:#fff; stroke-width:0px;"/><path d="m195.1602,74.7246c-.457-.6533-.6846-1.606-.6846-2.8574s.2275-2.2036.6846-2.8574c.457-.6533,1.1221-.9805,1.9932-.9805.8721,0,1.5361.3252,1.9932.9756.457.6499.6855,1.6011.6855,2.8521,0,1.2583-.2285,2.2144-.6855,2.8677-.457.6538-1.1211.981-1.9932.981-.8711,0-1.5361-.3271-1.9932-.981Zm3.1904-.6167c.2559-.4814.3848-1.2319.3848-2.251s-.127-1.7642-.3799-2.2354c-.2529-.4707-.6533-.7065-1.2021-.7065-.541,0-.9404.2373-1.1963.7119-.2568.4741-.3848,1.2178-.3848,2.23,0,1.019.1279,1.7695.3848,2.251.2559.4814.6553.7222,1.1963.7222s.9404-.2407,1.1973-.7222Z" style="fill:#fff; stroke-width:0px;"/><path d="m202.2666,74.356v.8643c0,.3306-.0557.6309-.168.9019-.1123.2705-.3027.5391-.5693.8066l-.4541-.3691c.2959-.3232.4639-.6362.5068-.9385h-.5801v-1.2651h1.2646Z" style="fill:#fff; stroke-width:0px;"/><path d="m211.5664,74.7246v.8965h-4.9238v-.812l2.583-2.8364c.3311-.3652.5713-.6973.7227-.9961s.2266-.5957.2266-.8911c0-.3794-.1084-.6694-.3271-.8696-.2178-.2007-.5342-.3008-.9482-.3008-.6963,0-1.3916.2744-2.0879.8223l-.3906-.8013c.2959-.2739.6719-.4937,1.1289-.6587s.917-.248,1.3809-.248c.7168,0,1.2852.1792,1.7031.5376.418.3589.627.8438.627,1.4551,0,.436-.0947.8491-.2842,1.2393-.1904.3901-.5059.8242-.9492,1.3022l-2.0029,2.1611h3.542Z" style="fill:#fff; stroke-width:0px;"/><path d="m213.3691,74.7246c-.457-.6533-.6846-1.606-.6846-2.8574s.2275-2.2036.6846-2.8574c.457-.6533,1.1221-.9805,1.9932-.9805.8721,0,1.5361.3252,1.9932.9756.457.6499.6855,1.6011.6855,2.8521,0,1.2583-.2285,2.2144-.6855,2.8677-.457.6538-1.1211.981-1.9932.981-.8711,0-1.5361-.3271-1.9932-.981Zm3.1904-.6167c.2559-.4814.3848-1.2319.3848-2.251s-.127-1.7642-.3799-2.2354c-.2529-.4707-.6533-.7065-1.2021-.7065-.541,0-.9404.2373-1.1963.7119-.2568.4741-.3848,1.2178-.3848,2.23,0,1.019.1279,1.7695.3848,2.251.2559.4814.6553.7222,1.1963.7222s.9404-.2407,1.1973-.7222Z" style="fill:#fff; stroke-width:0px;"/><path d="m224.3252,74.7246v.8965h-4.9238v-.812l2.583-2.8364c.3311-.3652.5713-.6973.7227-.9961s.2266-.5957.2266-.8911c0-.3794-.1084-.6694-.3271-.8696-.2178-.2007-.5342-.3008-.9482-.3008-.6963,0-1.3916.2744-2.0879.8223l-.3906-.8013c.2959-.2739.6719-.4937,1.1289-.6587s.917-.248,1.3809-.248c.7168,0,1.2852.1792,1.7031.5376.418.3589.627.8438.627,1.4551,0,.436-.0947.8491-.2842,1.2393-.1904.3901-.5059.8242-.9492,1.3022l-2.0029,2.1611h3.542Z" style="fill:#fff; stroke-width:0px;"/><path d="m229.7188,71.166c.3545.2007.6289.4819.8223.8438.1934.3623.29.7788.29,1.2495,0,.4849-.1074.9102-.3213,1.2759-.2148.3657-.5225.6504-.9229.854-.4004.2041-.8682.3057-1.4023.3057-.4639,0-.9209-.0806-1.3711-.2427-.4492-.1616-.8223-.3828-1.1172-.6641l.3789-.8013c.6963.5483,1.4033.8223,2.1201.8223.499,0,.8867-.1353,1.165-.4058.2773-.2705.416-.645.416-1.123,0-.457-.1387-.8257-.416-1.1069-.2783-.2812-.6484-.4219-1.1123-.4219-.6748,0-1.2168.2568-1.624.7695h-.7061v-4.4072h4.5967v.875h-3.5215v2.3833c.4004-.3374.8965-.5063,1.4863-.5063.4707,0,.8838.1001,1.2393.3003Z" style="fill:#fff; stroke-width:0px;"/><path d="m28.9326,51.5884c.3564-1.3022,1.0225-2.9766,1.457-3.6895l.8682-.0933c-.3408.915-.7441,2.5117-.915,3.6279l-1.4102.1548Zm2.3096,0c.3408-1.3022,1.0234-2.9766,1.4414-3.6895l.8691-.0933c-.3418.915-.7441,2.5117-.915,3.6279l-1.3955.1548Z" style="fill:#055edd; stroke-width:0px;"/><path d="m38.4365,57.1851l.667-1.1782c.5576.4341,1.1289.7495,1.7129.9458s1.2324.2944,1.9453.2944c.8369,0,1.4785-.1499,1.9229-.4497s.666-.7231.666-1.271c0-.3413-.1133-.6226-.3408-.8452-.2275-.2222-.5039-.3975-.8291-.5269-.3262-.1294-.7939-.2871-1.4033-.4731-.7754-.2271-1.4033-.4468-1.8838-.6587s-.8916-.522-1.2324-.9302-.5117-.9482-.5117-1.6201c0-.6406.1729-1.2041.5195-1.6899.3457-.4858.8398-.8604,1.4805-1.124s1.3896-.3955,2.248-.3955c.7646,0,1.4912.1191,2.1787.3569.6865.2378,1.2627.5732,1.7285,1.0073l-.667,1.1787c-.4756-.4136-.9922-.7236-1.5508-.9307-.5576-.2065-1.1309-.3101-1.7207-.3101-.8271,0-1.4678.1606-1.9219.481-.4551.3203-.6826.7598-.6826,1.3179,0,.3721.1191.6821.3564.9302.2383.248.5322.4419.8838.5811.3516.1396.8428.3022,1.4727.4883.7549.2173,1.3643.4268,1.8301.6279.4648.2017.8604.4961,1.1855.8838.3262.3877.4883.8916.4883,1.5117,0,.9819-.3799,1.7544-1.1396,2.3179-.7588.5635-1.8008.8447-3.123.8447-1.7266,0-3.1533-.4546-4.2793-1.3643Z" style="fill:#055edd; stroke-width:0px;"/><path d="m55.2803,50.8828c.502.3052.8916.7417,1.1709,1.3101.2793.5688.4189,1.2354.4189,2,0,.8579-.1553,1.6152-.4658,2.2715-.3096.6562-.7441,1.165-1.3018,1.5269-.5586.3618-1.1992.5425-1.9229.5425-.5889,0-1.1055-.124-1.5498-.3721s-.7861-.5991-1.0234-1.0542l-.3721,4.6665h-1.5508l.7139-8.9609c.041-.4233.0615-.9146.0615-1.4727,0-.3203-.0049-.5635-.0156-.7285h1.458l.0303,1.271c.2383-.4546.5918-.811,1.0625-1.0698.4697-.2583.9844-.3872,1.542-.3872.6621,0,1.2432.1523,1.7441.457Zm-.6045,5.6045c.4082-.5479.6123-1.2969.6123-2.248,0-.8164-.1914-1.4492-.5732-1.8989-.3828-.4497-.9199-.6743-1.6123-.6743-.7236,0-1.29.2739-1.6973.8213-.4092.5483-.6133,1.2974-.6133,2.248,0,.8374.1885,1.4756.5664,1.915.377.439.917.6587,1.6201.6587.7236,0,1.2891-.2739,1.6973-.8218Z" style="fill:#055edd; stroke-width:0px;"/><path d="m66.5283,50.6118l-.6201,7.8135h-1.5352l.0928-1.1938c-.248.4136-.5967.7339-1.0459.9614-.4502.2275-.9434.3408-1.4805.3408-.6621,0-1.2432-.1523-1.7441-.457-.502-.3047-.8896-.7417-1.1631-1.3101s-.4111-1.2349-.4111-2c0-.8579.1553-1.6147.4658-2.2715.3096-.6562.7412-1.165,1.2939-1.5269s1.1914-.5425,1.915-.5425c.5996,0,1.1211.1265,1.5654.3794.4443.2534.7852.6128,1.0234,1.0776l.0928-1.271h1.5508Zm-2.4492,5.8677c.4131-.5527.6201-1.2993.6201-2.2402,0-.8369-.1895-1.4751-.5664-1.9146-.377-.439-.917-.6587-1.6201-.6587-.7236,0-1.292.2739-1.7051.8213-.4141.5483-.6201,1.2974-.6201,2.248,0,.8169.1934,1.4497.5811,1.8994s.9277.6743,1.6201.6743c.7129,0,1.2764-.2764,1.6904-.8296Z" style="fill:#055edd; stroke-width:0px;"/><path d="m70.1865,58.0688c-.5684-.3101-1.0049-.752-1.3096-1.3257s-.457-1.2378-.457-1.9922c0-.8784.165-1.6436.4961-2.2944.3301-.6514.8027-1.1523,1.418-1.5039.6152-.3511,1.3359-.5269,2.1631-.5269.5889,0,1.1289.0879,1.6201.2632.4902.1763.917.4243,1.2783.7441l-.5732,1.1162c-.3926-.2891-.7725-.5059-1.1396-.6509-.3672-.1445-.752-.2173-1.1543-.2173-.7969,0-1.4111.2715-1.8457.814-.4336.543-.6504,1.2998-.6504,2.2715,0,.7959.1982,1.416.5967,1.8604.3975.4443.9531.6665,1.666.6665.4033,0,.7783-.0698,1.124-.209.3467-.1396.7109-.3594,1.0938-.6592l.4023,1.1162c-.3408.3101-.752.5532-1.2324.7285-.4805.1758-.9844.2637-1.5117.2637-.7539,0-1.416-.1548-1.9844-.4648Z" style="fill:#055edd; stroke-width:0px;"/><path d="m78.0781,54.5493v.2017c0,.8164.1992,1.4473.5967,1.8916.3984.4443.9795.6665,1.7441.6665.9307,0,1.7627-.2891,2.4961-.8682l.4033,1.1006c-.3311.3101-.7676.5532-1.3105.7285-.542.1758-1.0977.2637-1.666.2637-.7754,0-1.4492-.1548-2.0234-.4648-.5732-.3101-1.0156-.752-1.3252-1.3257-.3105-.5737-.4648-1.2378-.4648-1.9922,0-.8472.1621-1.5991.4883-2.2559.3252-.6562.7822-1.165,1.3721-1.5269.5889-.3618,1.2607-.5425,2.0146-.5425,1.0234,0,1.8301.2944,2.4189.8833.5889.5894.8838,1.4316.8838,2.5273,0,.2275-.0156.4648-.0469.7129h-5.5811Zm.8916-2.457c-.3877.3462-.6484.8555-.7832,1.5269h4.1709c.0098-.6509-.1533-1.1548-.4883-1.5112-.3359-.3569-.7988-.5352-1.3877-.5352-.6201,0-1.124.1733-1.5117.5195Z" style="fill:#055edd; stroke-width:0px;"/><path d="m92.7432,49.728l-.0771.8838h2.1865l-.1094,1.209h-2.1699l-.5273,6.6045h-1.5498l.5264-6.6045h-1.5186l.1084-1.209h1.5039l.0771-1.0234c.0723-.8682.3438-1.5293.8135-1.9844.4707-.4546,1.0938-.6821,1.8682-.6821.4033,0,.7754.0518,1.1162.1548l-.1084,1.2871c-.2783-.0825-.5264-.124-.7441-.124-.8477,0-1.3125.4961-1.3955,1.4883Z" style="fill:#055edd; stroke-width:0px;"/><path d="m97.3789,58.0688c-.5684-.3101-1.0049-.752-1.3096-1.3257s-.457-1.2427-.457-2.0078c0-.8682.1621-1.6279.4883-2.2788.3252-.6514.7822-1.1523,1.3721-1.5039.5889-.3511,1.2705-.5269,2.0459-.5269.7549,0,1.4131.1577,1.9766.4727.5635.3154.9971.7573,1.3027,1.3257.3047.5684.457,1.2349.457,2,0,.8682-.1631,1.6274-.4883,2.2788-.3252.6509-.7803,1.1523-1.3643,1.5039s-1.2637.5269-2.0391.5269c-.7539,0-1.416-.1548-1.9844-.4648Zm3.6982-1.6123c.3975-.5684.5967-1.3281.5967-2.2793,0-.8062-.1865-1.4263-.5586-1.8604s-.9043-.6509-1.5967-.6509c-.7441,0-1.3174.2817-1.7207.8447-.4033.5635-.6045,1.3203-.6045,2.2715,0,.8267.1836,1.4546.5498,1.8833.3672.4292.9121.6436,1.6357.6436.7344,0,1.2998-.2842,1.6982-.8525Z" style="fill:#055edd; stroke-width:0px;"/><path d="m110.4023,50.5342l-.1396,1.4106c-.2686-.103-.5684-.1548-.8994-.1548-.7129,0-1.2627.2144-1.6504.6431-.3877.4292-.6074.9746-.6592,1.6357l-.3408,4.3564h-1.5664l.4502-5.6123c.041-.7026.0615-1.23.0615-1.5811,0-.2793-.0049-.4858-.0156-.6201h1.458l.0303,1.2246c.248-.4443.5977-.7905,1.0469-1.0386s.9434-.3721,1.4805-.3721c.2578,0,.5059.0361.7441.1084Z" style="fill:#055edd; stroke-width:0px;"/><path d="m115.5342,57.1851l.667-1.1782c.5576.4341,1.1289.7495,1.7129.9458s1.2324.2944,1.9453.2944c.8369,0,1.4785-.1499,1.9229-.4497s.666-.7231.666-1.271c0-.3413-.1133-.6226-.3408-.8452-.2275-.2222-.5039-.3975-.8291-.5269-.3262-.1294-.7939-.2871-1.4033-.4731-.7754-.2271-1.4033-.4468-1.8838-.6587s-.8916-.522-1.2324-.9302-.5117-.9482-.5117-1.6201c0-.6406.1729-1.2041.5195-1.6899.3457-.4858.8398-.8604,1.4805-1.124s1.3896-.3955,2.248-.3955c.7646,0,1.4912.1191,2.1787.3569.6865.2378,1.2627.5732,1.7285,1.0073l-.667,1.1787c-.4756-.4136-.9922-.7236-1.5508-.9307-.5576-.2065-1.1309-.3101-1.7207-.3101-.8271,0-1.4678.1606-1.9219.481-.4551.3203-.6826.7598-.6826,1.3179,0,.3721.1191.6821.3564.9302.2383.248.5322.4419.8838.5811.3516.1396.8428.3022,1.4727.4883.7549.2173,1.3643.4268,1.8301.6279.4648.2017.8604.4961,1.1855.8838.3262.3877.4883.8916.4883,1.5117,0,.9819-.3799,1.7544-1.1396,2.3179-.7588.5635-1.8008.8447-3.123.8447-1.7266,0-3.1533-.4546-4.2793-1.3643Z" style="fill:#055edd; stroke-width:0px;"/><path d="m133.4561,50.6118l-.6045,7.8135h-1.5352l.0928-1.1782c-.2588.4136-.6123.7314-1.0615.9536-.4502.2222-.9434.333-1.4805.333-.8584,0-1.5117-.23-1.9619-.6899-.4492-.4595-.6738-1.1289-.6738-2.0073,0-.207.0049-.3618.0156-.4653l.3721-4.7593h1.5654l-.3877,4.6665c-.0098.0723-.0156.1807-.0156.3252,0,1.1162.5225,1.6743,1.5664,1.6743.6406,0,1.1543-.2012,1.542-.6045.3877-.4028.6074-.9609.6592-1.6743l.3564-4.3872h1.5508Z" style="fill:#055edd; stroke-width:0px;"/><path d="m135.0684,57.5415l.5732-1.1162c.8682.6201,1.7773.9302,2.7285.9302.5684,0,.9971-.0874,1.2871-.2637.2891-.1753.4336-.4341.4336-.7749,0-.3203-.1445-.5635-.4336-.7285-.29-.1655-.7393-.3359-1.3486-.5117-.5479-.1553-.9951-.3076-1.3418-.4575-.3457-.1494-.6406-.3691-.8828-.6587-.2432-.2896-.3643-.6719-.3643-1.1475,0-.7231.2861-1.3022.8604-1.7363.5732-.4341,1.3408-.6509,2.3018-.6509.5684,0,1.1084.0879,1.6201.2632.5117.1763.9385.4243,1.2793.7441l-.5586,1.1011c-.7539-.6099-1.5342-.915-2.3408-.915-.5479,0-.9688.0957-1.2637.2871-.2939.1914-.4414.4624-.4414.814,0,.2275.0771.4136.2324.5581s.3438.2612.5654.3486c.2227.0879.5459.1938.9697.3179.5469.1553.9941.3076,1.3408.4575.3457.1499.6436.3721.8916.6665s.3721.6797.3721,1.1548c0,.7236-.29,1.2896-.8682,1.6978-.5791.4087-1.3594.6123-2.3418.6123-1.2705,0-2.3613-.3306-3.2705-.9922Z" style="fill:#055edd; stroke-width:0px;"/><path d="m145.7656,55.7432l-.0156.248c0,.8164.4033,1.2246,1.21,1.2246.2686,0,.542-.041.8213-.124l-.0928,1.2715c-.3418.1138-.7285.1704-1.1631.1704-.7549,0-1.333-.1963-1.7363-.5889s-.6045-.9614-.6045-1.7056c0-.1548.0049-.2734.0156-.3564l.3096-4.062h-1.5186l.1084-1.209h1.5039l.1543-1.9536,1.5967-.5425-.1855,2.4961h2.1553l-.0938,1.209h-2.1543l-.3105,3.9224Z" style="fill:#055edd; stroke-width:0px;"/><path d="m157.2842,50.6118l-.6201,7.8135h-1.5352l.0928-1.1938c-.248.4136-.5967.7339-1.0459.9614-.4502.2275-.9434.3408-1.4805.3408-.6621,0-1.2432-.1523-1.7441-.457-.502-.3047-.8896-.7417-1.1631-1.3101s-.4111-1.2349-.4111-2c0-.8579.1553-1.6147.4658-2.2715.3096-.6562.7412-1.165,1.2939-1.5269s1.1914-.5425,1.915-.5425c.5996,0,1.1211.1265,1.5654.3794.4443.2534.7852.6128,1.0234,1.0776l.0928-1.271h1.5508Zm-2.4492,5.8677c.4131-.5527.6201-1.2993.6201-2.2402,0-.8369-.1895-1.4751-.5664-1.9146-.377-.439-.917-.6587-1.6201-.6587-.7236,0-1.292.2739-1.7051.8213-.4141.5483-.6201,1.2974-.6201,2.248,0,.8169.1934,1.4497.5811,1.8994s.9277.6743,1.6201.6743c.7129,0,1.2764-.2764,1.6904-.8296Z" style="fill:#055edd; stroke-width:0px;"/><path d="m159.9512,50.6118h1.5664l-.6201,7.8135h-1.5664l.6201-7.8135Zm1.9541-3.4111l-.124,1.6436h-1.8301l.124-1.6436h1.8301Z" style="fill:#055edd; stroke-width:0px;"/><path d="m170.2148,51.123c.4541.4653.6816,1.1475.6816,2.0464,0,.186-.0049.3311-.0156.4341l-.3877,4.8218h-1.5498l.3721-4.7285c.0098-.0723.0156-.1807.0156-.3257,0-1.1162-.5322-1.6743-1.5967-1.6743-.6719,0-1.2041.2017-1.5977.6045-.3926.4033-.6143.9614-.666,1.6748l-.3564,4.4492h-1.5664l.4502-5.6123c.041-.4233.0615-.9146.0615-1.4727,0-.3203-.0049-.5635-.0156-.7285h1.458l.0303,1.2402c.2588-.4443.623-.7935,1.0938-1.0469.4697-.2529,1-.3794,1.5889-.3794.8779,0,1.5449.2324,2,.6973Z" style="fill:#055edd; stroke-width:0px;"/><path d="m180.8809,50.6118l-.6201,7.8135h-1.5352l.0928-1.1938c-.248.4136-.5967.7339-1.0459.9614-.4502.2275-.9434.3408-1.4805.3408-.6621,0-1.2432-.1523-1.7441-.457-.502-.3047-.8896-.7417-1.1631-1.3101s-.4111-1.2349-.4111-2c0-.8579.1553-1.6147.4658-2.2715.3096-.6562.7412-1.165,1.2939-1.5269s1.1914-.5425,1.915-.5425c.5996,0,1.1211.1265,1.5654.3794.4443.2534.7852.6128,1.0234,1.0776l.0928-1.271h1.5508Zm-2.4492,5.8677c.4131-.5527.6201-1.2993.6201-2.2402,0-.8369-.1895-1.4751-.5664-1.9146-.377-.439-.917-.6587-1.6201-.6587-.7236,0-1.292.2739-1.7051.8213-.4141.5483-.6201,1.2974-.6201,2.248,0,.8169.1934,1.4497.5811,1.8994s.9277.6743,1.6201.6743c.7129,0,1.2764-.2764,1.6904-.8296Z" style="fill:#055edd; stroke-width:0px;"/><path d="m189.2676,50.8828c.5068.3052.8994.7417,1.1787,1.3101.2793.5688.418,1.2354.418,2,0,.8579-.1543,1.6152-.4648,2.2715-.3096.6562-.7441,1.165-1.3018,1.5269-.5586.3618-1.1992.5425-1.9229.5425-.5996,0-1.124-.1265-1.5732-.3799-.4502-.2529-.7881-.6123-1.0156-1.0771l-.1084,1.3486h-1.5508l.915-11.4106h1.5498l-.3867,4.6978c.2578-.4033.6123-.7183,1.0615-.9458.4492-.2271.9385-.3408,1.4648-.3408.6514,0,1.2305.1523,1.7363.457Zm-.5967,5.6045c.4082-.5479.6123-1.2969.6123-2.248,0-.8164-.1914-1.4492-.5732-1.8989-.3828-.4497-.9199-.6743-1.6123-.6743-.7236,0-1.292.2739-1.7061.8213-.4131.5483-.6201,1.2974-.6201,2.248,0,.8374.1885,1.4756.5664,1.915.377.439.9219.6587,1.6357.6587.7227,0,1.2891-.2739,1.6973-.8218Z" style="fill:#055edd; stroke-width:0px;"/><path d="m193.6553,47.0146h1.5654l-.9141,11.4106h-1.5664l.915-11.4106Z" style="fill:#055edd; stroke-width:0px;"/><path d="m198.3525,54.5493v.2017c0,.8164.1992,1.4473.5967,1.8916.3984.4443.9795.6665,1.7441.6665.9307,0,1.7627-.2891,2.4961-.8682l.4033,1.1006c-.3311.3101-.7676.5532-1.3105.7285-.542.1758-1.0977.2637-1.666.2637-.7754,0-1.4492-.1548-2.0234-.4648-.5732-.3101-1.0156-.752-1.3252-1.3257-.3105-.5737-.4648-1.2378-.4648-1.9922,0-.8472.1621-1.5991.4883-2.2559.3252-.6562.7822-1.165,1.3721-1.5269.5889-.3618,1.2607-.5425,2.0146-.5425,1.0234,0,1.8301.2944,2.4189.8833.5889.5894.8838,1.4316.8838,2.5273,0,.2275-.0156.4648-.0469.7129h-5.5811Zm.8916-2.457c-.3877.3462-.6484.8555-.7832,1.5269h4.1709c.0098-.6509-.1533-1.1548-.4883-1.5112-.3359-.3569-.7988-.5352-1.3877-.5352-.6201,0-1.124.1733-1.5117.5195Z" style="fill:#055edd; stroke-width:0px;"/><path d="m211.3291,47.3867h3.8135c1.6641,0,2.9541.4473,3.8682,1.3413.915.894,1.3721,2.1421,1.3721,3.7441,0,1.8809-.501,3.3433-1.5039,4.3872-1.002,1.0439-2.418,1.5659-4.2471,1.5659h-4.1553l.8525-11.0386Zm3.1934,9.7051c1.4062,0,2.4629-.3926,3.1709-1.1782.708-.7852,1.0615-1.9375,1.0615-3.457,0-1.23-.3154-2.1602-.9453-2.7905-.6309-.6304-1.5713-.9458-2.8213-.9458h-2.1396l-.667,8.3716h2.3408Z" style="fill:#055edd; stroke-width:0px;"/><path d="m223.7627,54.5493v.2017c0,.8164.1992,1.4473.5967,1.8916.3984.4443.9795.6665,1.7441.6665.9307,0,1.7627-.2891,2.4961-.8682l.4033,1.1006c-.3311.3101-.7676.5532-1.3105.7285-.542.1758-1.0977.2637-1.666.2637-.7754,0-1.4492-.1548-2.0234-.4648-.5732-.3101-1.0156-.752-1.3252-1.3257-.3105-.5737-.4648-1.2378-.4648-1.9922,0-.8472.1621-1.5991.4883-2.2559.3252-.6562.7822-1.165,1.3721-1.5269.5889-.3618,1.2607-.5425,2.0146-.5425,1.0234,0,1.8301.2944,2.4189.8833.5889.5894.8838,1.4316.8838,2.5273,0,.2275-.0156.4648-.0469.7129h-5.5811Zm.8916-2.457c-.3877.3462-.6484.8555-.7832,1.5269h4.1709c.0098-.6509-.1533-1.1548-.4883-1.5112-.3359-.3569-.7988-.5352-1.3877-.5352-.6201,0-1.124.1733-1.5117.5195Z" style="fill:#055edd; stroke-width:0px;"/><path d="m238.8164,50.627l-4,7.7983h-1.4258l-2.7441-7.7983h1.5811l2.0312,6.0308,2.9609-6.0308h1.5967Z" style="fill:#055edd; stroke-width:0px;"/><path d="m241.0645,54.5493v.2017c0,.8164.1992,1.4473.5967,1.8916.3984.4443.9795.6665,1.7441.6665.9307,0,1.7627-.2891,2.4961-.8682l.4033,1.1006c-.3311.3101-.7676.5532-1.3105.7285-.542.1758-1.0977.2637-1.666.2637-.7754,0-1.4492-.1548-2.0234-.4648-.5732-.3101-1.0156-.752-1.3252-1.3257-.3105-.5737-.4648-1.2378-.4648-1.9922,0-.8472.1621-1.5991.4883-2.2559.3252-.6562.7822-1.165,1.3721-1.5269.5889-.3618,1.2607-.5425,2.0146-.5425,1.0234,0,1.8301.2944,2.4189.8833.5889.5894.8838,1.4316.8838,2.5273,0,.2275-.0156.4648-.0469.7129h-5.5811Zm.8916-2.457c-.3877.3462-.6484.8555-.7832,1.5269h4.1709c.0098-.6509-.1533-1.1548-.4883-1.5112-.3359-.3569-.7988-.5352-1.3877-.5352-.6201,0-1.124.1733-1.5117.5195Z" style="fill:#055edd; stroke-width:0px;"/><path d="m249.4209,47.0146h1.5654l-.9141,11.4106h-1.5664l.915-11.4106Z" style="fill:#055edd; stroke-width:0px;"/><path d="m254.335,58.0688c-.5684-.3101-1.0049-.752-1.3096-1.3257s-.457-1.2427-.457-2.0078c0-.8682.1621-1.6279.4883-2.2788.3252-.6514.7822-1.1523,1.3721-1.5039.5889-.3511,1.2705-.5269,2.0459-.5269.7549,0,1.4131.1577,1.9766.4727.5635.3154.9971.7573,1.3027,1.3257.3047.5684.457,1.2349.457,2,0,.8682-.1631,1.6274-.4883,2.2788-.3252.6509-.7803,1.1523-1.3643,1.5039s-1.2637.5269-2.0391.5269c-.7539,0-1.416-.1548-1.9844-.4648Zm3.6982-1.6123c.3975-.5684.5967-1.3281.5967-2.2793,0-.8062-.1865-1.4263-.5586-1.8604s-.9043-.6509-1.5967-.6509c-.7441,0-1.3174.2817-1.7207.8447-.4033.5635-.6045,1.3203-.6045,2.2715,0,.8267.1836,1.4546.5498,1.8833.3672.4292.9121.6436,1.6357.6436.7344,0,1.2998-.2842,1.6982-.8525Z" style="fill:#055edd; stroke-width:0px;"/><path d="m268.4355,50.8828c.502.3052.8916.7417,1.1709,1.3101.2793.5688.4189,1.2354.4189,2,0,.8579-.1553,1.6152-.4658,2.2715-.3096.6562-.7441,1.165-1.3018,1.5269-.5586.3618-1.1992.5425-1.9229.5425-.5889,0-1.1055-.124-1.5498-.3721s-.7861-.5991-1.0234-1.0542l-.3721,4.6665h-1.5508l.7139-8.9609c.041-.4233.0615-.9146.0615-1.4727,0-.3203-.0049-.5635-.0156-.7285h1.458l.0303,1.271c.2383-.4546.5918-.811,1.0625-1.0698.4697-.2583.9844-.3872,1.542-.3872.6621,0,1.2432.1523,1.7441.457Zm-.6045,5.6045c.4082-.5479.6123-1.2969.6123-2.248,0-.8164-.1914-1.4492-.5732-1.8989-.3828-.4497-.9199-.6743-1.6123-.6743-.7236,0-1.29.2739-1.6973.8213-.4092.5483-.6133,1.2974-.6133,2.248,0,.8374.1885,1.4756.5664,1.915.377.439.917.6587,1.6201.6587.7236,0,1.2891-.2739,1.6973-.8218Z" style="fill:#055edd; stroke-width:0px;"/><path d="m283.2109,51.1152c.418.4604.627,1.1348.627,2.0234,0,.207-.0049.3618-.0146.4648l-.3877,4.8218h-1.5508l.3721-4.7598c.0107-.0825.0156-.2065.0156-.3721,0-.5371-.1162-.9375-.3486-1.2012s-.5869-.3955-1.0625-.3955c-.6094,0-1.0898.1992-1.4414.5972s-.5586.9741-.6201,1.7285l-.3408,4.4028h-1.5664l.3877-4.7441c.0107-.0825.0156-.1963.0156-.3408,0-.5581-.1162-.9717-.3486-1.2402-.2324-.269-.5869-.4033-1.0625-.4033-.6094,0-1.0928.1992-1.4492.5972s-.5605.9741-.6123,1.7285l-.3408,4.4028h-1.5664l.4502-5.6123c.041-.6821.0615-1.209.0615-1.5811,0-.2793-.0049-.4858-.0156-.6201h1.458l.0303,1.209c.5273-.9302,1.3594-1.395,2.4961-1.395.5898,0,1.0781.1216,1.4648.3643.3877.2427.6641.6021.8301,1.0771.2793-.4648.6484-.8213,1.1084-1.0693s.9795-.3721,1.5576-.3721c.8164,0,1.4346.23,1.8535.6895Z" style="fill:#055edd; stroke-width:0px;"/><path d="m287.4502,54.5493v.2017c0,.8164.1992,1.4473.5967,1.8916.3984.4443.9795.6665,1.7441.6665.9307,0,1.7627-.2891,2.4961-.8682l.4033,1.1006c-.3311.3101-.7676.5532-1.3105.7285-.542.1758-1.0977.2637-1.666.2637-.7754,0-1.4492-.1548-2.0234-.4648-.5732-.3101-1.0156-.752-1.3252-1.3257-.3105-.5737-.4648-1.2378-.4648-1.9922,0-.8472.1621-1.5991.4883-2.2559.3252-.6562.7822-1.165,1.3721-1.5269.5889-.3618,1.2607-.5425,2.0146-.5425,1.0234,0,1.8301.2944,2.4189.8833.5889.5894.8838,1.4316.8838,2.5273,0,.2275-.0156.4648-.0469.7129h-5.5811Zm.8916-2.457c-.3877.3462-.6484.8555-.7832,1.5269h4.1709c.0098-.6509-.1533-1.1548-.4883-1.5112-.3359-.3569-.7988-.5352-1.3877-.5352-.6201,0-1.124.1733-1.5117.5195Z" style="fill:#055edd; stroke-width:0px;"/><path d="m301.5586,51.123c.4541.4653.6816,1.1475.6816,2.0464,0,.186-.0049.3311-.0156.4341l-.3877,4.8218h-1.5498l.3721-4.7285c.0098-.0723.0156-.1807.0156-.3257,0-1.1162-.5322-1.6743-1.5967-1.6743-.6719,0-1.2041.2017-1.5977.6045-.3926.4033-.6143.9614-.666,1.6748l-.3564,4.4492h-1.5664l.4502-5.6123c.041-.4233.0615-.9146.0615-1.4727,0-.3203-.0049-.5635-.0156-.7285h1.458l.0303,1.2402c.2588-.4443.623-.7935,1.0938-1.0469.4697-.2529,1-.3794,1.5889-.3794.8779,0,1.5449.2324,2,.6973Z" style="fill:#055edd; stroke-width:0px;"/><path d="m306.7051,55.7432l-.0156.248c0,.8164.4033,1.2246,1.21,1.2246.2686,0,.542-.041.8213-.124l-.0928,1.2715c-.3418.1138-.7285.1704-1.1631.1704-.7549,0-1.333-.1963-1.7363-.5889s-.6045-.9614-.6045-1.7056c0-.1548.0049-.2734.0156-.3564l.3096-4.062h-1.5186l.1084-1.209h1.5039l.1543-1.9536,1.5967-.5425-.1855,2.4961h2.1553l-.0938,1.209h-2.1543l-.3105,3.9224Z" style="fill:#055edd; stroke-width:0px;"/><path d="m316.1162,47.8057c-.3564,1.3022-1.0234,2.9609-1.4414,3.6743l-.8682.1084c.3252-.9146.7441-2.5269.9141-3.6431l1.3955-.1396Zm2.2949,0c-.3564,1.3022-1.0234,2.9609-1.4424,3.6743l-.8682.1084c.3408-.9146.7441-2.5269.915-3.6431l1.3955-.1396Z" style="fill:#055edd; stroke-width:0px;"/><path d="m11.5713,34.5918h-4.6611l-.9648,2.2368h-1.7412l4.3135-9.5371h1.4062l4.3262,9.5371h-1.7275l-.9512-2.2368Zm-.5762-1.3394l-1.7549-4.0854-1.7549,4.0854h3.5098Z" style="fill:#fff; stroke-width:0px;"/><path d="m15.2812,27.2915h4.1387c1.0273,0,1.8262.248,2.3984.7437.5713.4956.8564,1.1719.8564,2.0293,0,.8569-.2871,1.5356-.8633,2.0356-.5762.5005-1.373.7505-2.3916.7505h-2.4102v3.978h-1.7285v-9.5371Zm3.9385,4.2192c.5977,0,1.0508-.1226,1.3594-.3682.3076-.2456.4619-.6006.4619-1.0649,0-.4731-.1514-.8325-.4551-1.0781s-.7598-.3687-1.3662-.3687h-2.21v2.8799h2.21Z" style="fill:#fff; stroke-width:0px;"/><path d="m24.2021,27.2915h4.1387c1.0273,0,1.8262.248,2.3984.7437.5713.4956.8564,1.1719.8564,2.0293,0,.8569-.2871,1.5356-.8633,2.0356-.5762.5005-1.373.7505-2.3916.7505h-2.4102v3.978h-1.7285v-9.5371Zm3.9385,4.2192c.5977,0,1.0508-.1226,1.3594-.3682.3076-.2456.4619-.6006.4619-1.0649,0-.4731-.1514-.8325-.4551-1.0781s-.7598-.3687-1.3662-.3687h-2.21v2.8799h2.21Z" style="fill:#fff; stroke-width:0px;"/><path d="m33.123,27.2915h1.7285v8.1172h4.46v1.4199h-6.1885v-9.5371Z" style="fill:#fff; stroke-width:0px;"/><path d="m40.624,27.2915h1.7285v9.5371h-1.7285v-9.5371Z" style="fill:#fff; stroke-width:0px;"/><path d="m46.2842,36.3462c-.7012-.4019-1.2393-.9707-1.6143-1.7075s-.5625-1.6006-.5625-2.5918c0-.9824.1875-1.8418.5625-2.5786s.9131-1.3037,1.6143-1.7012c.7002-.3975,1.5195-.5962,2.457-.5962.6436,0,1.248.1006,1.8154.3013.5674.2012,1.0381.4805,1.4131.8374l-.5625,1.2593c-.4287-.3486-.8555-.6006-1.2793-.7568s-.877-.2344-1.3594-.2344c-.9199,0-1.6318.2993-2.1367.8975s-.7568,1.4556-.7568,2.5718c0,1.125.25,1.9888.75,2.5918.5.6025,1.2148.9038,2.1436.9038.4824,0,.9355-.0776,1.3594-.2344.4238-.1558.8506-.4082,1.2793-.7568l.5625,1.2593c-.375.3574-.8457.6362-1.4131.8374-.5674.2007-1.1719.3013-1.8154.3013-.9375,0-1.7568-.2012-2.457-.603Z" style="fill:#fff; stroke-width:0px;"/><path d="m59.752,34.5918h-4.6611l-.9648,2.2368h-1.7412l4.3135-9.5371h1.4062l4.3262,9.5371h-1.7275l-.9512-2.2368Zm-.5762-1.3394l-1.7549-4.0854-1.7549,4.0854h3.5098Z" style="fill:#fff; stroke-width:0px;"/><path d="m64.5205,28.7114h-3.1074v-1.4199h7.9697v1.4199h-3.1211v8.1172h-1.7412v-8.1172Z" style="fill:#fff; stroke-width:0px;"/><path d="m70.5752,27.2915h1.7285v9.5371h-1.7285v-9.5371Z" style="fill:#fff; stroke-width:0px;"/><path d="m76.1934,36.353c-.6826-.397-1.21-.9644-1.5801-1.7012-.3711-.7368-.5557-1.605-.5557-2.605,0-.9912.1826-1.8555.5488-2.5923.3662-.7363.8906-1.3013,1.5742-1.6943.6826-.3926,1.4883-.5894,2.417-.5894s1.7354.1968,2.418.5894c.6836.3931,1.2061.958,1.5674,1.6943.3613.7368.543,1.6011.543,2.5923,0,1-.1836,1.8682-.5498,2.605s-.8887,1.3042-1.5674,1.7012c-.6787.3975-1.4824.5962-2.4111.5962-.9189,0-1.7207-.1987-2.4043-.5962Zm4.4678-1.6943c.4912-.6074.7363-1.478.7363-2.6118,0-1.1255-.2451-1.9893-.7363-2.5923-.4912-.6025-1.1787-.9038-2.0635-.9038-.8838,0-1.5713.2993-2.0625.8975s-.7363,1.4644-.7363,2.5986.2451,2.0044.7363,2.6118,1.1787.9106,2.0625.9106c.8848,0,1.5723-.3032,2.0635-.9106Z" style="fill:#fff; stroke-width:0px;"/><path d="m92.9307,27.2915v9.5371h-1.2861l-5.1436-6.6841v6.6841h-1.6074v-9.5371h1.2861l5.1299,6.6704v-6.6704h1.6211Z" style="fill:#fff; stroke-width:0px;"/><path d="m96.1787,36.6543c-.6387-.1963-1.1807-.4775-1.627-.8438l.5889-1.2593c.4648.3486.9492.6055,1.4541.7705.5039.165,1.0557.2476,1.6533.2476.6611,0,1.1729-.1157,1.5342-.3481.3613-.2319.542-.5581.542-.9775,0-.3574-.167-.6318-.502-.8242-.335-.1919-.8867-.3726-1.6543-.5425-1.1963-.2588-2.0674-.5938-2.6113-1.0044-.5449-.4106-.8174-1.0088-.8174-1.7949,0-.5625.1514-1.0625.4551-1.5s.7344-.7812,1.293-1.0317c.5576-.2495,1.2031-.375,1.9355-.375.6699,0,1.3057.1006,1.9082.3013.6035.2012,1.0967.4805,1.4805.8374l-.5762,1.2593c-.8486-.6787-1.7861-1.0181-2.8125-1.0181-.6162,0-1.1035.127-1.46.3818-.3574.2544-.5361.6006-.5361,1.0381,0,.375.1582.6606.4756.8569.3164.1968.8594.3799,1.6279.5493.7939.1875,1.4414.3906,1.9414.6094.5.2192.8848.5005,1.1523.8438.2676.3442.4014.7749.4014,1.293,0,.5713-.1514,1.0693-.4551,1.4932-.3037.4243-.7412.7524-1.3125.9849-.5713.2319-1.2461.3481-2.0225.3481-.7324,0-1.418-.0986-2.0566-.2949Z" style="fill:#fff; stroke-width:0px;"/><path d="m109.1309,36.353c-.6826-.397-1.21-.9644-1.5801-1.7012-.3711-.7368-.5557-1.605-.5557-2.605,0-.9912.1826-1.8555.5488-2.5923.3662-.7363.8906-1.3013,1.5742-1.6943.6826-.3926,1.4883-.5894,2.417-.5894s1.7354.1968,2.418.5894c.6836.3931,1.2061.958,1.5674,1.6943.3613.7368.543,1.6011.543,2.5923,0,1-.1836,1.8682-.5498,2.605s-.8887,1.3042-1.5674,1.7012c-.6787.3975-1.4824.5962-2.4111.5962-.9189,0-1.7207-.1987-2.4043-.5962Zm4.4678-1.6943c.4912-.6074.7363-1.478.7363-2.6118,0-1.1255-.2451-1.9893-.7363-2.5923-.4912-.6025-1.1787-.9038-2.0635-.9038-.8838,0-1.5713.2993-2.0625.8975s-.7363,1.4644-.7363,2.5986.2451,2.0044.7363,2.6118,1.1787.9106,2.0625.9106c.8848,0,1.5723-.3032,2.0635-.9106Z" style="fill:#fff; stroke-width:0px;"/><path d="m117.8311,27.2915h6.2285v1.3799h-4.5137v2.6118h4.2461v1.3931h-4.2461v4.1523h-1.7148v-9.5371Z" style="fill:#fff; stroke-width:0px;"/><path d="m130.335,36.6543c-.6387-.1963-1.1807-.4775-1.627-.8438l.5889-1.2593c.4648.3486.9492.6055,1.4541.7705.5039.165,1.0557.2476,1.6533.2476.6611,0,1.1729-.1157,1.5342-.3481.3613-.2319.542-.5581.542-.9775,0-.3574-.167-.6318-.502-.8242-.335-.1919-.8867-.3726-1.6543-.5425-1.1963-.2588-2.0674-.5938-2.6113-1.0044-.5449-.4106-.8174-1.0088-.8174-1.7949,0-.5625.1514-1.0625.4551-1.5s.7344-.7812,1.293-1.0317c.5576-.2495,1.2031-.375,1.9355-.375.6699,0,1.3057.1006,1.9082.3013.6035.2012,1.0967.4805,1.4805.8374l-.5762,1.2593c-.8486-.6787-1.7861-1.0181-2.8125-1.0181-.6162,0-1.1035.127-1.46.3818-.3574.2544-.5361.6006-.5361,1.0381,0,.375.1582.6606.4756.8569.3164.1968.8594.3799,1.6279.5493.7939.1875,1.4414.3906,1.9414.6094.5.2192.8848.5005,1.1523.8438.2676.3442.4014.7749.4014,1.293,0,.5713-.1514,1.0693-.4551,1.4932-.3037.4243-.7412.7524-1.3125.9849-.5713.2319-1.2461.3481-2.0225.3481-.7324,0-1.418-.0986-2.0566-.2949Z" style="fill:#fff; stroke-width:0px;"/><path d="m137.7891,27.2915h4.1387c1.0273,0,1.8262.248,2.3984.7437.5713.4956.8564,1.1719.8564,2.0293,0,.8569-.2871,1.5356-.8633,2.0356-.5762.5005-1.373.7505-2.3916.7505h-2.4102v3.978h-1.7285v-9.5371Zm3.9385,4.2192c.5977,0,1.0508-.1226,1.3594-.3682.3076-.2456.4619-.6006.4619-1.0649,0-.4731-.1514-.8325-.4551-1.0781s-.7598-.3687-1.3662-.3687h-2.21v2.8799h2.21Z" style="fill:#fff; stroke-width:0px;"/><path d="m152.0283,34.5918h-4.6611l-.9648,2.2368h-1.7412l4.3135-9.5371h1.4062l4.3262,9.5371h-1.7275l-.9512-2.2368Zm-.5762-1.3394l-1.7549-4.0854-1.7549,4.0854h3.5098Z" style="fill:#fff; stroke-width:0px;"/><path d="m157.3125,36.3462c-.7012-.4019-1.2393-.9707-1.6143-1.7075s-.5625-1.6006-.5625-2.5918c0-.9824.1875-1.8418.5625-2.5786s.9131-1.3037,1.6143-1.7012c.7002-.3975,1.5195-.5962,2.457-.5962.6436,0,1.248.1006,1.8154.3013.5674.2012,1.0381.4805,1.4131.8374l-.5625,1.2593c-.4287-.3486-.8555-.6006-1.2793-.7568s-.877-.2344-1.3594-.2344c-.9199,0-1.6318.2993-2.1367.8975s-.7568,1.4556-.7568,2.5718c0,1.125.25,1.9888.75,2.5918.5.6025,1.2148.9038,2.1436.9038.4824,0,.9355-.0776,1.3594-.2344.4238-.1558.8506-.4082,1.2793-.7568l.5625,1.2593c-.375.3574-.8457.6362-1.4131.8374-.5674.2007-1.1719.3013-1.8154.3013-.9375,0-1.7568-.2012-2.457-.603Z" style="fill:#fff; stroke-width:0px;"/><path d="m164.6191,27.2915h6.376v1.3662h-4.6885v2.6387h4.4072v1.3667h-4.4072v2.7993h4.6885v1.3662h-6.376v-9.5371Z" style="fill:#fff; stroke-width:0px;"/><path d="m177.4307,36.6543c-.6387-.1963-1.1807-.4775-1.627-.8438l.5889-1.2593c.4648.3486.9492.6055,1.4541.7705.5039.165,1.0557.2476,1.6533.2476.6611,0,1.1729-.1157,1.5342-.3481.3613-.2319.542-.5581.542-.9775,0-.3574-.167-.6318-.502-.8242-.335-.1919-.8867-.3726-1.6543-.5425-1.1963-.2588-2.0674-.5938-2.6113-1.0044-.5449-.4106-.8174-1.0088-.8174-1.7949,0-.5625.1514-1.0625.4551-1.5s.7344-.7812,1.293-1.0317c.5576-.2495,1.2031-.375,1.9355-.375.6699,0,1.3057.1006,1.9082.3013.6035.2012,1.0967.4805,1.4805.8374l-.5762,1.2593c-.8486-.6787-1.7861-1.0181-2.8125-1.0181-.6162,0-1.1035.127-1.46.3818-.3574.2544-.5361.6006-.5361,1.0381,0,.375.1582.6606.4756.8569.3164.1968.8594.3799,1.6279.5493.7939.1875,1.4414.3906,1.9414.6094.5.2192.8848.5005,1.1523.8438.2676.3442.4014.7749.4014,1.293,0,.5713-.1514,1.0693-.4551,1.4932-.3037.4243-.7412.7524-1.3125.9849-.5713.2319-1.2461.3481-2.0225.3481-.7324,0-1.418-.0986-2.0566-.2949Z" style="fill:#fff; stroke-width:0px;"/><path d="m186.7539,36.3462c-.7012-.4019-1.2393-.9707-1.6143-1.7075s-.5625-1.6006-.5625-2.5918c0-.9824.1875-1.8418.5625-2.5786s.9131-1.3037,1.6143-1.7012c.7002-.3975,1.5195-.5962,2.457-.5962.6436,0,1.248.1006,1.8154.3013.5674.2012,1.0381.4805,1.4131.8374l-.5625,1.2593c-.4287-.3486-.8555-.6006-1.2793-.7568s-.877-.2344-1.3594-.2344c-.9199,0-1.6318.2993-2.1367.8975s-.7568,1.4556-.7568,2.5718c0,1.125.25,1.9888.75,2.5918.5.6025,1.2148.9038,2.1436.9038.4824,0,.9355-.0776,1.3594-.2344.4238-.1558.8506-.4082,1.2793-.7568l.5625,1.2593c-.375.3574-.8457.6362-1.4131.8374-.5674.2007-1.1719.3013-1.8154.3013-.9375,0-1.7568-.2012-2.457-.603Z" style="fill:#fff; stroke-width:0px;"/><path d="m194.0605,27.2915h1.7285v9.5371h-1.7285v-9.5371Z" style="fill:#fff; stroke-width:0px;"/><path d="m197.8516,27.2915h6.376v1.3662h-4.6885v2.6387h4.4072v1.3667h-4.4072v2.7993h4.6885v1.3662h-6.376v-9.5371Z" style="fill:#fff; stroke-width:0px;"/><path d="m213.8584,27.2915v9.5371h-1.2861l-5.1436-6.6841v6.6841h-1.6074v-9.5371h1.2861l5.1299,6.6704v-6.6704h1.6211Z" style="fill:#fff; stroke-width:0px;"/><path d="m217.8037,36.3462c-.7012-.4019-1.2393-.9707-1.6143-1.7075s-.5625-1.6006-.5625-2.5918c0-.9824.1875-1.8418.5625-2.5786s.9131-1.3037,1.6143-1.7012c.7002-.3975,1.5195-.5962,2.457-.5962.6436,0,1.248.1006,1.8154.3013.5674.2012,1.0381.4805,1.4131.8374l-.5625,1.2593c-.4287-.3486-.8555-.6006-1.2793-.7568s-.877-.2344-1.3594-.2344c-.9199,0-1.6318.2993-2.1367.8975s-.7568,1.4556-.7568,2.5718c0,1.125.25,1.9888.75,2.5918.5.6025,1.2148.9038,2.1436.9038.4824,0,.9355-.0776,1.3594-.2344.4238-.1558.8506-.4082,1.2793-.7568l.5625,1.2593c-.375.3574-.8457.6362-1.4131.8374-.5674.2007-1.1719.3013-1.8154.3013-.9375,0-1.7568-.2012-2.457-.603Z" style="fill:#fff; stroke-width:0px;"/><path d="m225.1094,27.2915h6.376v1.3662h-4.6885v2.6387h4.4072v1.3667h-4.4072v2.7993h4.6885v1.3662h-6.376v-9.5371Z" style="fill:#fff; stroke-width:0px;"/><path d="m244.3711,36.9492c-.7686-.2681-1.4287-.6519-1.9824-1.1519-.8311.7588-1.7861,1.1382-2.8672,1.1382-.6426,0-1.2119-.1089-1.707-.3281-.4961-.2188-.8799-.5244-1.1523-.9175-.2725-.3926-.4082-.8438-.4082-1.3525,0-.5806.1602-1.0938.4814-1.5405.3223-.4463.835-.8662,1.541-1.2593-.3574-.3926-.6162-.7544-.7773-1.085-.1602-.3301-.2412-.6694-.2412-1.0181,0-.6694.2412-1.21.7236-1.6206s1.1113-.6162,1.8887-.6162c.7139,0,1.2861.1875,1.7148.5625s.6426.8755.6426,1.5005c0,.4819-.1406.9199-.4219,1.3125-.2812.3931-.7432.7769-1.3867,1.1519l1.8887,1.9556c.375-.7588.5811-1.6206.6162-2.585h1.4199c-.0625,1.3931-.4102,2.5942-1.0449,3.603.5273.4912,1.1611.8574,1.9023,1.0986l-.8301,1.1519Zm-6.0283-1.688c.3037.2505.7148.3755,1.2324.3755.6973,0,1.3262-.2593,1.8887-.7773l-2.3438-2.4243c-.4287.2681-.7412.5449-.9375.8306-.1963.2861-.2949.6118-.2949.978,0,.4282.1514.7681.4551,1.0176Zm.7441-6.6167c-.2012.1963-.3018.46-.3018.79,0,.2056.0557.4067.167.603.1123.1963.3193.4644.623.8037.4736-.2769.8057-.5293.998-.7568.1924-.228.2881-.48.2881-.7568,0-.2949-.0889-.5312-.2676-.71s-.416-.2681-.71-.2681c-.3311,0-.5967.0986-.7969.2949Z" style="fill:#fff; stroke-width:0px;"/><path d="m251.8721,28.7114h-3.1074v-1.4199h7.9697v1.4199h-3.1211v8.1172h-1.7412v-8.1172Z" style="fill:#fff; stroke-width:0px;"/><path d="m257.9268,27.2915h6.376v1.3662h-4.6885v2.6387h4.4072v1.3667h-4.4072v2.7993h4.6885v1.3662h-6.376v-9.5371Z" style="fill:#fff; stroke-width:0px;"/><path d="m267.7383,36.3462c-.7012-.4019-1.2393-.9707-1.6143-1.7075s-.5625-1.6006-.5625-2.5918c0-.9824.1875-1.8418.5625-2.5786s.9131-1.3037,1.6143-1.7012c.7002-.3975,1.5195-.5962,2.457-.5962.6436,0,1.248.1006,1.8154.3013.5674.2012,1.0381.4805,1.4131.8374l-.5625,1.2593c-.4287-.3486-.8555-.6006-1.2793-.7568s-.877-.2344-1.3594-.2344c-.9199,0-1.6318.2993-2.1367.8975s-.7568,1.4556-.7568,2.5718c0,1.125.25,1.9888.75,2.5918.5.6025,1.2148.9038,2.1436.9038.4824,0,.9355-.0776,1.3594-.2344.4238-.1558.8506-.4082,1.2793-.7568l.5625,1.2593c-.375.3574-.8457.6362-1.4131.8374-.5674.2007-1.1719.3013-1.8154.3013-.9375,0-1.7568-.2012-2.457-.603Z" style="fill:#fff; stroke-width:0px;"/><path d="m283.3496,27.2915v9.5371h-1.7139v-4.1392h-4.8896v4.1392h-1.7012v-9.5371h1.7012v3.9917h4.8896v-3.9917h1.7139Z" style="fill:#fff; stroke-width:0px;"/><path d="m293.4492,27.2915v9.5371h-1.2861l-5.1436-6.6841v6.6841h-1.6074v-9.5371h1.2861l5.1299,6.6704v-6.6704h1.6211Z" style="fill:#fff; stroke-width:0px;"/><path d="m297.3535,36.353c-.6826-.397-1.21-.9644-1.5801-1.7012-.3711-.7368-.5557-1.605-.5557-2.605,0-.9912.1826-1.8555.5488-2.5923.3662-.7363.8906-1.3013,1.5742-1.6943.6826-.3926,1.4883-.5894,2.417-.5894s1.7354.1968,2.418.5894c.6836.3931,1.2061.958,1.5674,1.6943.3613.7368.543,1.6011.543,2.5923,0,1-.1836,1.8682-.5498,2.605s-.8887,1.3042-1.5674,1.7012c-.6787.3975-1.4824.5962-2.4111.5962-.9189,0-1.7207-.1987-2.4043-.5962Zm4.4678-1.6943c.4912-.6074.7363-1.478.7363-2.6118,0-1.1255-.2451-1.9893-.7363-2.5923-.4912-.6025-1.1787-.9038-2.0635-.9038-.8838,0-1.5713.2993-2.0625.8975s-.7363,1.4644-.7363,2.5986.2451,2.0044.7363,2.6118,1.1787.9106,2.0625.9106c.8848,0,1.5723-.3032,2.0635-.9106Z" style="fill:#fff; stroke-width:0px;"/><path d="m306.0537,27.2915h1.7285v8.1172h4.46v1.4199h-6.1885v-9.5371Z" style="fill:#fff; stroke-width:0px;"/><path d="m314.8604,36.353c-.6826-.397-1.21-.9644-1.5801-1.7012-.3711-.7368-.5557-1.605-.5557-2.605,0-.9912.1826-1.8555.5488-2.5923.3662-.7363.8906-1.3013,1.5742-1.6943.6826-.3926,1.4883-.5894,2.417-.5894s1.7354.1968,2.418.5894c.6836.3931,1.2061.958,1.5674,1.6943.3613.7368.543,1.6011.543,2.5923,0,1-.1836,1.8682-.5498,2.605s-.8887,1.3042-1.5674,1.7012c-.6787.3975-1.4824.5962-2.4111.5962-.9189,0-1.7207-.1987-2.4043-.5962Zm4.4678-1.6943c.4912-.6074.7363-1.478.7363-2.6118,0-1.1255-.2451-1.9893-.7363-2.5923-.4912-.6025-1.1787-.9038-2.0635-.9038-.8838,0-1.5713.2993-2.0625.8975s-.7363,1.4644-.7363,2.5986.2451,2.0044.7363,2.6118,1.1787.9106,2.0625.9106c.8848,0,1.5723-.3032,2.0635-.9106Z" style="fill:#fff; stroke-width:0px;"/><path d="m331.5176,31.6719v4.5806c-.4385.2144-.9648.3843-1.5811.5093s-1.2461.1875-1.8887.1875c-.9824,0-1.835-.1963-2.5586-.5894-.7227-.3931-1.2764-.9556-1.6611-1.688-.3838-.7319-.5752-1.6069-.5752-2.625,0-1,.1914-1.8662.5752-2.5986.3848-.7324.9316-1.2949,1.6416-1.688.71-.3926,1.542-.5894,2.498-.5894.6699,0,1.2969.0986,1.8818.2949s1.0732.4731,1.4668.8306l-.5898,1.2588c-.4463-.3481-.8838-.5981-1.3125-.75s-.8975-.2275-1.4062-.2275c-.9824,0-1.7256.2944-2.2305.8838s-.7568,1.4512-.7568,2.5854c0,1.1699.2588,2.0518.7773,2.6455.5176.5938,1.29.8906,2.3174.8906.625,0,1.2412-.085,1.8477-.2544v-2.4111h-2.0625v-1.2456h3.6172Z" style="fill:#fff; stroke-width:0px;"/><path d="m337.3037,33.0513v3.7773h-1.7275v-3.7773l-3.8711-5.7598h1.9688l2.7598,4.313,2.7725-4.313h1.9688l-3.8711,5.7598Z" style="fill:#fff; stroke-width:0px;"/></svg>